<svg width="520" height="120" viewBox="0 0 520 120" fill="none" xmlns="http://www.w3.org/2000/svg">
  <defs>
    <linearGradient id="g1" x1="12" y1="10" x2="108" y2="108" gradientUnits="userSpaceOnUse">
      <stop stop-color="#0284C7"/>
      <stop offset="1" stop-color="#16A34A"/>
    </linearGradient>
  </defs>
  <rect x="12" y="10" width="96" height="96" rx="24" fill="url(#g1)"/>
  <path d="M32 38C32 33.582 35.582 30 40 30H58C69.046 30 78 38.954 78 50V86H48C39.164 86 32 78.836 32 70V38Z" fill="white"/>
  <path d="M88 38C88 33.582 84.418 30 80 30H62C50.954 30 42 38.954 42 50V86H72C80.836 86 88 78.836 88 70V38Z" fill="#F1F5F9"/>
  <path d="M60 44V84" stroke="#0F172A" stroke-width="4" stroke-linecap="round"/>
  <text x="128" y="56" fill="#0F172A" font-size="34" font-weight="700" font-family="Segoe UI, Arial, sans-serif">Richmond Study</text>
  <text x="128" y="86" fill="#334155" font-size="20" font-weight="500" font-family="Segoe UI, Arial, sans-serif">Learning Notes &amp; Practice</text>
</svg>

